<?xml version="1.0" encoding="UTF-8" standalone="no"?>
<!-- Generator: Adobe Illustrator 19.0.0, SVG Export Plug-In . SVG Version: 6.00 Build 0)  -->

<svg
   xmlns:dc="http://purl.org/dc/elements/1.1/"
   xmlns:cc="http://creativecommons.org/ns#"
   xmlns:rdf="http://www.w3.org/1999/02/22-rdf-syntax-ns#"
   xmlns:svg="http://www.w3.org/2000/svg"
   xmlns="http://www.w3.org/2000/svg"
   xmlns:sodipodi="http://sodipodi.sourceforge.net/DTD/sodipodi-0.dtd"
   xmlns:inkscape="http://www.inkscape.org/namespaces/inkscape"
   version="1.1"
   id="Capa_1"
   x="0px"
   y="0px"
   viewBox="0 0 452 512.00006"
   xml:space="preserve"
   sodipodi:docname="train.svg"
   width="452"
   height="512.00006"
   inkscape:version="0.92.2 2405546, 2018-03-11"><metadata
   id="metadata4712"><rdf:RDF><cc:Work
       rdf:about=""><dc:format>image/svg+xml</dc:format><dc:type
         rdf:resource="http://purl.org/dc/dcmitype/StillImage" /><dc:title></dc:title></cc:Work></rdf:RDF></metadata><defs
   id="defs4710" /><sodipodi:namedview
   pagecolor="#ffffff"
   bordercolor="#666666"
   borderopacity="1"
   objecttolerance="10"
   gridtolerance="10"
   guidetolerance="10"
   inkscape:pageopacity="0"
   inkscape:pageshadow="2"
   inkscape:window-width="1920"
   inkscape:window-height="1060"
   id="namedview4708"
   showgrid="false"
   fit-margin-left="56"
   units="px"
   fit-margin-top="0"
   fit-margin-right="0"
   fit-margin-bottom="0"
   inkscape:zoom="0.84082031"
   inkscape:cx="152.77403"
   inkscape:cy="211.72913"
   inkscape:window-x="0"
   inkscape:window-y="20"
   inkscape:window-maximized="0"
   inkscape:current-layer="Capa_1" />
<g
   id="g4639"
   transform="translate(-2)">
	<path
   style="fill:#545d69"
   d="m 369.582,510.533 v 0 c -7.707,3.625 -16.885,0.301 -20.501,-7.424 L 274.875,344.598 c -3.616,-7.724 -0.3,-16.925 7.406,-20.549 v 0 c 7.707,-3.625 16.885,-0.301 20.501,7.424 l 74.206,158.511 c 3.616,7.725 0.3,16.925 -7.406,20.549 z"
   id="path4635"
   inkscape:connector-curvature="0" />
	<path
   style="fill:#545d69"
   d="m 80.124,510.533 v 0 c 7.707,3.625 16.885,0.301 20.501,-7.424 l 74.206,-158.511 c 3.616,-7.724 0.3,-16.925 -7.406,-20.549 v 0 c -7.707,-3.625 -16.885,-0.301 -20.501,7.424 L 72.718,489.984 c -3.616,7.725 -0.301,16.925 7.406,20.549 z"
   id="path4637"
   inkscape:connector-curvature="0" />
</g>
<path
   style="fill:#ffd45e"
   d="m 390,113.951 v 288.244 c 0,13.64 -11.082,24.707 -24.741,24.707 H 80.741 C 67.082,426.902 56,415.835 56,402.195 V 113.951 c 0,-13.64 11.082,-24.707 24.741,-24.707 h 284.518 c 13.659,0 24.741,11.067 24.741,24.707 z"
   id="path4641"
   inkscape:connector-curvature="0" />
<path
   style="fill:#f0af4f"
   d="m 365.259,89.244 h -30.926 c 13.659,0 24.741,11.067 24.741,24.707 v 288.244 c 0,13.64 -11.082,24.707 -24.741,24.707 h 30.926 c 13.659,0 24.741,-11.066 24.741,-24.707 V 113.951 c 0,-13.64 -11.082,-24.707 -24.741,-24.707 z"
   id="path4643"
   inkscape:connector-curvature="0" />
<path
   style="fill:#ef6161"
   d="M 365.276,426.902 H 80.724 C 67.069,426.902 56,415.833 56,402.178 V 282.78 h 334 v 119.398 c 0,13.655 -11.069,24.724 -24.724,24.724 z"
   id="path4645"
   inkscape:connector-curvature="0" />
<path
   style="fill:#e63950"
   d="m 359.074,282.78 v 119.415 c 0,13.645 -11.077,24.707 -24.741,24.707 h 30.926 C 378.923,426.902 390,415.84 390,402.195 V 282.78 Z"
   id="path4647"
   inkscape:connector-curvature="0" />
<g
   id="g4655"
   transform="translate(-2)">
	<path
   style="fill:#ffd45e"
   d="m 109.588,367.62 h -0.089 c -11.297,0 -20.456,-9.158 -20.456,-20.456 v -0.089 c 0,-11.297 9.158,-20.456 20.456,-20.456 h 0.089 c 11.297,0 20.456,9.158 20.456,20.456 v 0.089 c -0.001,11.298 -9.159,20.456 -20.456,20.456 z"
   id="path4649"
   inkscape:connector-curvature="0" />
	<path
   style="fill:#ffd45e"
   d="m 340.515,367.62 h -0.117 c -11.29,0 -20.442,-9.152 -20.442,-20.442 v -0.117 c 0,-11.29 9.152,-20.442 20.442,-20.442 h 0.117 c 11.29,0 20.442,9.152 20.442,20.442 v 0.117 c 0,11.29 -9.152,20.442 -20.442,20.442 z"
   id="path4651"
   inkscape:connector-curvature="0" />
	<rect
   x="58"
   y="143.28999"
   style="fill:#ffd45e"
   width="334"
   height="102.94"
   id="rect4653" />
</g>
<rect
   x="56"
   y="143.28999"
   style="fill:#3ad1e6"
   width="334"
   height="102.94"
   id="rect4657" />
<rect
   x="359.07001"
   y="143.28999"
   style="fill:#31bdd6"
   width="30.926001"
   height="102.94"
   id="rect4659" />
<rect
   x="207.53999"
   y="143.28999"
   style="fill:#f0af4f"
   width="30.926001"
   height="102.94"
   id="rect4661" />
<path
   style="fill:#5e6875"
   d="M 300.315,89.244 H 145.685 V 50.133 c 0,-5.689 4.612,-10.302 10.302,-10.302 h 134.027 c 5.689,0 10.302,4.612 10.302,10.302 z"
   id="path4663"
   inkscape:connector-curvature="0" />
<g
   id="g4669"
   transform="translate(-2)">
	<path
   style="fill:#545d69"
   d="M 292.006,39.831 H 261.08 c 5.693,0 10.309,4.609 10.309,10.294 v 39.119 h 30.926 V 50.125 c 0,-5.685 -4.616,-10.294 -10.309,-10.294 z"
   id="path4665"
   inkscape:connector-curvature="0" />
	<path
   style="fill:#545d69"
   d="m 261.08,312.34 c -4.142,0 -7.5,3.358 -7.5,7.5 v 23.383 H 196.42 V 319.84 c 0,-4.142 -3.358,-7.5 -7.5,-7.5 -4.142,0 -7.5,3.358 -7.5,7.5 v 61.767 c 0,4.142 3.358,7.5 7.5,7.5 4.142,0 7.5,-3.358 7.5,-7.5 v -23.383 h 57.16 v 23.383 c 0,4.142 3.358,7.5 7.5,7.5 4.142,0 7.5,-3.358 7.5,-7.5 V 319.84 c 0,-4.142 -3.358,-7.5 -7.5,-7.5 z"
   id="path4667"
   inkscape:connector-curvature="0" />
</g>
<path
   style="fill:#ef6161"
   d="m 452,64.659 c 0,50.739 -49.908,90.712 -61.579,99.367 -1.444,1.071 -3.397,1.071 -4.841,0 C 373.908,155.371 324,115.398 324,64.659 324,28.949 352.654,0 388,0 c 35.346,0 64,28.949 64,64.659 z"
   id="path4671"
   inkscape:connector-curvature="0" />
<path
   style="fill:#e63950"
   d="m 392.732,0.195 c 17.492,11.541 29.06,31.481 29.06,54.163 0,43.646 -36.928,79.324 -54.682,93.956 8.013,7.689 14.965,13.114 18.47,15.713 1.444,1.071 3.397,1.071 4.841,0 C 402.092,155.371 452,115.398 452,64.659 452,30.559 425.866,2.644 392.732,0.195 Z"
   id="path4673"
   inkscape:connector-curvature="0" />
<circle
   style="fill:#ffd45e"
   cx="388"
   cy="64.389999"
   r="25.754999"
   id="circle4675" />
<g
   id="g4677"
   transform="translate(-2)">
</g>
<g
   id="g4679"
   transform="translate(-2)">
</g>
<g
   id="g4681"
   transform="translate(-2)">
</g>
<g
   id="g4683"
   transform="translate(-2)">
</g>
<g
   id="g4685"
   transform="translate(-2)">
</g>
<g
   id="g4687"
   transform="translate(-2)">
</g>
<g
   id="g4689"
   transform="translate(-2)">
</g>
<g
   id="g4691"
   transform="translate(-2)">
</g>
<g
   id="g4693"
   transform="translate(-2)">
</g>
<g
   id="g4695"
   transform="translate(-2)">
</g>
<g
   id="g4697"
   transform="translate(-2)">
</g>
<g
   id="g4699"
   transform="translate(-2)">
</g>
<g
   id="g4701"
   transform="translate(-2)">
</g>
<g
   id="g4703"
   transform="translate(-2)">
</g>
<g
   id="g4705"
   transform="translate(-2)">
</g>
</svg>