<?xml version="1.0" encoding="iso-8859-1"?>
<!-- Generator: Adobe Illustrator 19.0.0, SVG Export Plug-In . SVG Version: 6.00 Build 0)  -->
<svg version="1.1" id="Capa_1" xmlns="http://www.w3.org/2000/svg" xmlns:xlink="http://www.w3.org/1999/xlink" x="0px" y="0px"
	 viewBox="0 0 512 512" style="enable-background:new 0 0 512 512;" xml:space="preserve">
<path style="fill:#E8DBC4;" d="M512,255.227V256c0,8.735-0.439,17.366-1.296,25.872c-0.658,6.531-1.557,12.978-2.685,19.341
	C486.672,421.031,381.962,512,256,512c-67.072,0-128.104-25.788-173.746-68.002c-16.091-14.869-30.281-31.786-42.13-50.343
	c-1.849-2.894-3.647-5.831-5.381-8.808c-14.838-25.422-25.412-53.624-30.751-83.634c-1.933-10.815-3.176-21.859-3.699-33.092
	c-0.104-2.038-0.178-4.075-0.219-6.123C0.021,260.002,0,258.006,0,256v-0.136c0.01-22.392,2.894-44.105,8.317-64.805
	c0.857-3.302,1.787-6.583,2.79-9.843c0.397-1.337,0.825-2.665,1.254-3.992c4.399-13.646,9.916-26.781,16.447-39.309
	C71.481,55.965,157.205,0,256,0c103.048,0,191.864,60.876,232.469,148.637c3.992,8.631,7.513,17.523,10.543,26.645
	c2.915,8.767,5.36,17.742,7.314,26.896c1.86,8.641,3.271,17.46,4.221,26.405C511.478,237.338,511.969,246.23,512,255.227z"/>
<g>
	<path style="fill:#F9EED7;" d="M495.48,215.259c0-6.52,4.671-11.933,10.846-13.082c1.86,8.641,3.271,17.46,4.221,26.405h-1.745
		c-3.678,0-7.011-1.494-9.425-3.897C496.974,222.271,495.48,218.937,495.48,215.259z"/>
	<path style="fill:#F9EED7;" d="M512,255.227V256c0,8.735-0.439,17.366-1.296,25.872h-31.096c-3.678,0-7.011-1.494-9.425-3.897
		c-2.403-2.414-3.897-5.747-3.897-9.425c0-7.356,5.966-13.322,13.322-13.322L512,255.227L512,255.227z"/>
</g>
<path style="fill:#C69A6A;" d="M129.411,321.652H93.884v-155.69c0-9.811,7.953-17.763,17.763-17.763l0,0
	c9.811,0,17.763,7.953,17.763,17.763V321.652z"/>
<path style="fill:#41B787;" d="M148.126,1.632H75.169c-25.648,0-46.44,20.792-46.44,46.44v115.197
	c0,25.648,20.792,46.441,46.44,46.441h72.957c25.648,0,46.44-20.792,46.44-46.441V48.073
	C194.566,22.425,173.774,1.632,148.126,1.632z"/>
<path style="fill:#4BC999;" d="M143.672,172.754H98.13c-16.566,0-29.996-13.43-29.996-29.996V43.403
	c0-16.566,13.43-29.996,29.996-29.996h45.543c16.566,0,29.996,13.43,29.996,29.996v99.355
	C173.668,159.325,160.238,172.754,143.672,172.754z"/>
<g>
	<rect x="93.884" y="209.711" style="fill:#B58657;" width="18.808" height="111.94"/>
	<rect x="99.485" y="209.711" style="fill:#B58657;" width="29.93" height="15.809"/>
</g>
<path style="fill:#5BD3A2;" d="M143.556,94.387h-12.918c-3.935,0-7.124-3.19-7.124-7.124V51.357c0-3.935,3.19-7.124,7.124-7.124
	h12.918c3.935,0,7.124,3.19,7.124,7.124v35.906C150.681,91.198,147.49,94.387,143.556,94.387z"/>
<path style="fill:#41B787;" d="M133.693,132.516H91.604c-6.732,0-12.191-5.457-12.191-12.191l0,0
	c0-6.732,5.458-12.191,12.191-12.191h12.134c6.712,0,12.47-5.251,12.593-11.962c0.125-6.837-5.38-12.419-12.189-12.419H67.571
	v24.381H42.843c-6.732,0-12.191,5.458-12.191,12.191l0,0c0,6.732,5.458,12.191,12.191,12.191h24.73v24.381h66.526
	c6.809,0,12.313-5.582,12.189-12.419C146.162,137.767,140.405,132.516,133.693,132.516z"/>
<path style="fill:#C69A6A;" d="M290.582,360.335h-35.527v-155.69c0-9.811,7.953-17.763,17.763-17.763l0,0
	c9.811,0,17.763,7.953,17.763,17.763V360.335z"/>
<path style="fill:#41B787;" d="M309.297,40.315H236.34c-25.648,0-46.44,20.792-46.44,46.44v115.197
	c0,25.648,20.792,46.44,46.44,46.44h72.957c25.648,0,46.44-20.792,46.44-46.44V86.756C355.738,61.107,334.945,40.315,309.297,40.315
	z"/>
<path style="fill:#4BC999;" d="M304.844,211.437h-45.543c-16.566,0-29.996-13.43-29.996-29.996V82.086
	c0-16.566,13.43-29.996,29.996-29.996h45.543c16.566,0,29.996,13.43,29.996,29.996v99.355
	C334.84,198.007,321.411,211.437,304.844,211.437z"/>
<g>
	<rect x="255.06" y="248.393" style="fill:#B58657;" width="18.808" height="111.94"/>
	<rect x="260.65" y="248.393" style="fill:#B58657;" width="29.93" height="15.809"/>
</g>
<path style="fill:#5BD3A2;" d="M304.728,133.07H291.81c-3.935,0-7.124-3.19-7.124-7.124V90.039c0-3.935,3.19-7.124,7.124-7.124
	h12.918c3.935,0,7.124,3.19,7.124,7.124v35.906C311.852,129.88,308.663,133.07,304.728,133.07z"/>
<path style="fill:#41B787;" d="M294.865,171.198h-42.088c-6.732,0-12.191-5.458-12.191-12.191l0,0
	c0-6.732,5.458-12.191,12.191-12.191h12.134c6.712,0,12.47-5.251,12.593-11.962c0.125-6.837-5.38-12.419-12.189-12.419h-36.571
	v24.381h-24.73c-6.732,0-12.191,5.458-12.191,12.191l0,0c0,6.732,5.458,12.191,12.191,12.191h24.73v24.381h66.526
	c6.809,0,12.313-5.582,12.189-12.419C307.335,176.45,301.576,171.198,294.865,171.198z"/>
<path style="fill:#C69A6A;" d="M443.71,340.587h-35.527v-155.69c0-9.811,7.953-17.763,17.763-17.763l0,0
	c9.811,0,17.763,7.953,17.763,17.763V340.587z"/>
<path style="fill:#41B787;" d="M462.425,20.567h-72.957c-25.648,0-46.44,20.792-46.44,46.44v115.197
	c0,25.648,20.792,46.44,46.44,46.44h72.957c25.648,0,46.441-20.792,46.441-46.44V67.007
	C508.865,41.358,488.073,20.567,462.425,20.567z"/>
<path style="fill:#4BC999;" d="M457.971,191.689h-45.543c-16.566,0-29.996-13.43-29.996-29.996V62.338
	c0-16.566,13.43-29.996,29.996-29.996h45.543c16.566,0,29.996,13.43,29.996,29.996v99.355
	C487.967,178.259,474.537,191.689,457.971,191.689z"/>
<g>
	<rect x="408.179" y="228.645" style="fill:#B58657;" width="18.808" height="111.94"/>
	<rect x="413.78" y="228.645" style="fill:#B58657;" width="29.93" height="15.809"/>
</g>
<path style="fill:#5BD3A2;" d="M457.855,113.321h-12.918c-3.935,0-7.124-3.19-7.124-7.124V70.29c0-3.935,3.19-7.124,7.124-7.124
	h12.918c3.935,0,7.124,3.19,7.124,7.124v35.906C464.98,110.131,461.789,113.321,457.855,113.321z"/>
<path style="fill:#41B787;" d="M447.992,151.45h-42.089c-6.732,0-12.191-5.458-12.191-12.191l0,0
	c0-6.732,5.458-12.191,12.191-12.191h12.134c6.712,0,12.47-5.251,12.593-11.962c0.125-6.837-5.38-12.419-12.189-12.419H381.87
	v24.381h-24.73c-6.732,0-12.191,5.457-12.191,12.191l0,0c0,6.732,5.457,12.191,12.191,12.191h24.73v24.381h66.526
	c6.809,0,12.313-5.582,12.189-12.419C460.462,156.701,454.704,151.45,447.992,151.45z"/>
<path style="fill:#5C5E70;" d="M508.019,301.213c-11.64,65.327-48.055,122.075-99.192,160.183
	c-7.565,5.642-15.464,10.877-23.657,15.673C347.251,499.273,303.114,512,256,512s-91.251-12.727-129.17-34.931
	c-8.182-4.796-16.071-10.021-23.636-15.673c-7.293-5.423-14.273-11.233-20.94-17.398c-2.717-2.508-5.381-5.089-7.993-7.722
	c-12.831-12.915-24.294-27.199-34.137-42.621c-1.849-2.894-3.647-5.831-5.381-8.808c-0.355-0.616-0.721-1.233-1.076-1.86
	c-14.273-24.931-24.461-52.496-29.675-81.774H508.019z"/>
<g>
	<path style="fill:#797B89;" d="M355.187,403.089L355.187,403.089c0-7.358-5.965-13.323-13.322-13.323H229.591
		c-7.358,0-13.324,5.965-13.324,13.322l0,0c0,7.358,5.965,13.322,13.324,13.322h36.316c7.358,0,13.323,5.965,13.323,13.322l0,0
		c0,7.358-5.965,13.322-13.323,13.322h-3.702c-7.358,0-13.322,5.965-13.322,13.323l0,0c0,7.358,5.965,13.322,13.322,13.322H369.81
		c7.358,0,13.322-5.965,13.322-13.322l0,0c0-7.358,5.965-13.323,13.322-13.323h3.702c7.358,0,13.322-5.965,13.322-13.322l0,0
		c0-7.358-5.965-13.322-13.322-13.322h-31.648C361.151,416.412,355.187,410.447,355.187,403.089z"/>
	<path style="fill:#797B89;" d="M144.008,422.954c0,7.356-5.966,13.322-13.322,13.322H74.261
		c-12.831-12.915-24.294-27.199-34.137-42.621c-1.849-2.894-3.647-5.831-5.381-8.808c-0.355-0.616-0.721-1.233-1.076-1.86h70.374
		c7.356,0,13.322,5.966,13.322,13.322c0,3.678,1.494,7.011,3.908,9.415c2.403,2.414,5.736,3.908,9.415,3.908
		c3.678,0,7.011,1.494,9.415,3.908C142.514,415.943,144.008,419.276,144.008,422.954z"/>
</g>
<path style="fill:#FF525D;" d="M459.442,224.695V377.48c0,8.934-7.241,16.175-16.175,16.175H40.124
	c-1.849-2.894-3.647-5.831-5.381-8.809c-20.177-34.565-32.475-74.282-34.45-116.705v-0.021C0.094,264.108,0,260.065,0,256
	c0-42.59,10.397-82.756,28.808-118.084c7.335-1.045,14.827-1.588,22.455-1.588h319.812c30.396,0,57.219,15.35,73.111,38.734
	c2.644,3.866,4.984,7.962,6.969,12.257C456.474,198.666,459.442,211.331,459.442,224.695z"/>
<g>
	<path style="fill:#5C5E70;" d="M459.436,224.69v60.01h-26.804c-20.24,0-36.652-16.412-36.652-36.664v-43.23
		c0-13.048,10.569-23.617,23.617-23.617h28.411C455.282,194.031,459.436,208.877,459.436,224.69z"/>
	<path style="fill:#5C5E70;" d="M357,197.768v47.637c0,9.164-7.429,16.593-16.593,16.593H0.073C0.021,260.002,0,258.006,0,256
		v-0.136c0.01-22.392,2.894-44.105,8.317-64.805c0.857-3.302,1.787-6.583,2.79-9.843c0.585-0.021,1.17-0.031,1.755-0.031h327.544
		C349.571,181.185,357,188.615,357,197.768z"/>
</g>
<g>
	<path style="fill:#EF4152;" d="M459.441,278.571v12.258h-26.804c-23.59,0-42.78-19.191-42.78-42.794v-43.23
		c0-16.412,13.334-29.746,29.746-29.746h24.583c2.643,3.868,4.985,7.967,6.974,12.258h-31.558c-9.643,0-17.488,7.845-17.488,17.488
		v43.23c0,16.834,13.688,30.536,30.523,30.536H459.441z"/>
	<path style="fill:#EF4152;" d="M335.381,175.062h-303.7c-6.635,0-13.103,0.752-19.32,2.163c-1.484,4.556-2.832,9.174-4.044,13.834
		c7.356-2.424,15.214-3.741,23.364-3.741h4.953v68.545H0V256c0,4.065,0.094,8.108,0.293,12.121h335.088
		c15.308,0,27.752-12.445,27.752-27.752v-37.564C363.133,187.507,350.689,175.062,335.381,175.062z M116.694,255.864H48.891v-68.545
		h67.803V255.864z M196.754,255.864h-67.803v-68.545h67.803V255.864z M276.814,255.864h-67.803v-68.545h67.803V255.864z
		 M350.877,240.368c0,8.547-6.959,15.496-15.496,15.496h-46.31v-68.545h46.31c8.537,0,15.496,6.949,15.496,15.485V240.368z"/>
	<path style="fill:#EF4152;" d="M165.094,393.655H40.124c-1.849-2.894-3.647-5.831-5.381-8.808
		c-20.177-34.565-32.475-74.282-34.45-116.705v-0.021h63.446C63.739,268.121,47.553,371.451,165.094,393.655z"/>
</g>
<g>
	<path style="fill:#494B5B;" d="M134.771,393.655c0,27.836-22.559,50.395-50.395,50.395c-0.711,0-1.421-0.01-2.121-0.052
		c-16.091-14.869-30.281-31.786-42.13-50.343c-1.849-2.894-3.647-5.831-5.381-8.809c4.169-23.636,24.806-41.587,49.633-41.587
		C112.212,343.259,134.771,365.819,134.771,393.655z"/>
	<circle style="fill:#494B5B;" cx="327.879" cy="393.655" r="50.395"/>
</g>
<g>
	<path style="fill:#E8DBC4;" d="M458.637,372.545h-36.778c-5.641,0-10.215-4.573-10.215-10.215c0-5.642,4.574-10.215,10.215-10.215
		h36.778c5.641,0,10.215,4.572,10.215,10.215C468.852,367.971,464.278,372.545,458.637,372.545z"/>
	<circle style="fill:#E8DBC4;" cx="327.879" cy="393.655" r="29.168"/>
</g>
<path style="fill:#D6C8B0;" d="M334.479,411.677c-13.594,0-24.618-11.024-24.618-24.618c0-9.874,5.81-18.39,14.19-22.309
	c-14.305,1.87-25.339,14.096-25.339,28.902c0,16.112,13.061,29.174,29.174,29.174c14.806,0,27.031-11.034,28.902-25.339
	C352.869,405.868,344.353,411.677,334.479,411.677z"/>
<g>
	<circle style="fill:#F9EED7;" cx="336.499" cy="385.755" r="8.707"/>
	<circle style="fill:#F9EED7;" cx="324.712" cy="373.959" r="5.629"/>
</g>
<circle style="fill:#E8DBC4;" cx="84.376" cy="393.655" r="29.168"/>
<path style="fill:#D6C8B0;" d="M90.977,411.677c-13.594,0-24.618-11.024-24.618-24.618c0-9.874,5.81-18.39,14.19-22.309
	c-14.305,1.87-25.339,14.096-25.339,28.902c0,16.112,13.061,29.174,29.174,29.174c14.806,0,27.032-11.034,28.902-25.339
	C109.367,405.868,100.851,411.677,90.977,411.677z"/>
<g>
	<circle style="fill:#F9EED7;" cx="92.996" cy="385.755" r="8.707"/>
	<circle style="fill:#F9EED7;" cx="81.209" cy="373.959" r="5.629"/>
</g>
<g>
	<path style="fill:#797B89;" d="M443.426,254.79L443.426,254.79c-3.271,0-5.921-2.651-5.921-5.921v-37.616
		c0-3.271,2.651-5.921,5.921-5.921l0,0c3.271,0,5.921,2.651,5.921,5.921v37.616C449.348,252.138,446.697,254.79,443.426,254.79z"/>
	<circle style="fill:#797B89;" cx="332.319" cy="205.333" r="7.314"/>
	<circle style="fill:#797B89;" cx="261.757" cy="205.333" r="7.314"/>
	<circle style="fill:#797B89;" cx="182.763" cy="205.333" r="7.314"/>
	<circle style="fill:#797B89;" cx="99.004" cy="205.333" r="7.314"/>
</g>
<path style="fill:#FF6E7C;" d="M383.519,161.445H269.276c-4.809,0-8.707-3.899-8.707-8.707l0,0c0-4.809,3.899-8.707,8.707-8.707
	h114.243c4.809,0,8.707,3.899,8.707,8.707l0,0C392.226,157.547,388.328,161.445,383.519,161.445z"/>
<circle style="fill:#FFD15C;" cx="430.153" cy="323.856" r="15.326"/>
<circle style="fill:#FFDC8D;" cx="433.633" cy="319.676" r="5.572"/>
<g>
	<path style="fill:#FCF8F2;" d="M408.827,461.396c-7.565,5.642-15.464,10.877-23.657,15.673H251.82v-15.673H408.827z"/>
	<path style="fill:#FCF8F2;" d="M142.106,461.396v15.673H126.83c-8.182-4.796-16.071-10.021-23.636-15.673H142.106z"/>
</g>
<g>
	<path style="fill:#FF6E7C;" d="M353.698,306.437H214.727c-6.059,0-10.971-4.912-10.971-10.971l0,0
		c0-6.059,4.912-10.971,10.971-10.971h138.971c6.059,0,10.971,4.912,10.971,10.971l0,0
		C364.669,301.525,359.757,306.437,353.698,306.437z"/>
	<path style="fill:#FF6E7C;" d="M175.02,306.437h-18.808c-6.059,0-10.971-4.912-10.971-10.971l0,0
		c0-6.059,4.912-10.971,10.971-10.971h18.808c6.059,0,10.971,4.912,10.971,10.971l0,0
		C185.992,301.525,181.08,306.437,175.02,306.437z"/>
</g>
<circle style="fill:#797B89;" cx="23.904" cy="205.333" r="7.314"/>
<g>
</g>
<g>
</g>
<g>
</g>
<g>
</g>
<g>
</g>
<g>
</g>
<g>
</g>
<g>
</g>
<g>
</g>
<g>
</g>
<g>
</g>
<g>
</g>
<g>
</g>
<g>
</g>
<g>
</g>
</svg>
