<?xml version="1.0" encoding="UTF-8" standalone="no"?>
<svg
   xmlns:dc="http://purl.org/dc/elements/1.1/"
   xmlns:cc="http://creativecommons.org/ns#"
   xmlns:rdf="http://www.w3.org/1999/02/22-rdf-syntax-ns#"
   xmlns:svg="http://www.w3.org/2000/svg"
   xmlns="http://www.w3.org/2000/svg"
   xmlns:sodipodi="http://sodipodi.sourceforge.net/DTD/sodipodi-0.dtd"
   xmlns:inkscape="http://www.inkscape.org/namespaces/inkscape"
   version="1.1"
   x="0px"
   y="0px"
   viewBox="0 0 80.290265 87.35685"
   enable-background="new 0 0 100 100"
   xml:space="preserve"
   id="svg938"
   sodipodi:docname="noun_waving_131189.svg"
   width="80.290276"
   height="87.35685"
   inkscape:version="0.92.2 2405546, 2018-03-11"><metadata
     id="metadata944"><rdf:RDF><cc:Work
         rdf:about=""><dc:format>image/svg+xml</dc:format><dc:type
           rdf:resource="http://purl.org/dc/dcmitype/StillImage" /><dc:title></dc:title></cc:Work></rdf:RDF></metadata><defs
     id="defs942" /><sodipodi:namedview
     pagecolor="#ffffff"
     bordercolor="#666666"
     borderopacity="1"
     objecttolerance="10"
     gridtolerance="10"
     guidetolerance="10"
     inkscape:pageopacity="0"
     inkscape:pageshadow="2"
     inkscape:window-width="1920"
     inkscape:window-height="1060"
     id="namedview940"
     showgrid="false"
     fit-margin-top="4"
     fit-margin-right="4"
     fit-margin-bottom="4"
     fit-margin-left="4"
     inkscape:zoom="4.8705515"
     inkscape:cx="38.634568"
     inkscape:cy="29.559768"
     inkscape:window-x="0"
     inkscape:window-y="20"
     inkscape:window-maximized="0"
     inkscape:current-layer="svg938" /><g
     id="g930"
     transform="translate(-10.367182,-9.24315)"><path
       d="m 82.3,30.1 c -0.8,-0.7 -2.1,-0.6 -2.8,0.3 -0.7,0.9 -0.6,2.1 0.3,2.8 0,0 3.9,3.3 2.6,7.8 L 78,52.5 c -0.4,1 0.1,2.2 1.2,2.6 0.2,0.1 0.5,0.1 0.7,0.1 0.8,0 1.6,-0.5 1.9,-1.3 L 86.2,42.3 V 42.2 C 88.3,35.1 82.5,30.3 82.3,30.1 Z"
       id="path926"
       inkscape:connector-curvature="0" /><path
       d="m 19,49.4 c 1.8,-4 5.1,-11.5 6.2,-14.1 1.1,-2.6 -2.3,-4.4 -3.7,-1.6 -1.1,2.2 -4.5,10.1 -6.3,14.1 -2.6,6.1 1.7,10.5 1.9,10.7 0.4,0.4 0.9,0.6 1.4,0.6 0.5,0 1,-0.2 1.4,-0.6 0.8,-0.8 0.8,-2 0,-2.8 0.1,0 -2.5,-2.7 -0.9,-6.3 z"
       id="path928"
       inkscape:connector-curvature="0" /></g><path
     d="m 67.632818,28.75685 c -0.6,-1.4 -1.8,-2.6 -3.2,-3.2 -0.7,-0.3 -1.4,-0.4 -2.1,-0.4 l 1.1,-2.7 c 1.8,-4.4 -0.1,-7.8 -2.8,-8.9 -0.7,-0.3 -1.4,-0.4 -2.2,-0.4 0.9,-2.5 0.6,-4.9 -0.8,-6.7 -1.4,-1.7999999 -3.7,-2.6999999 -6,-2.3999999 -1.7,0.2 -3.1,1.1 -4.2,2.3999999 -1.4,-1.5999999 -3.6,-2.4999999 -5.8,-2.1999999 -2.5,0.3 -4.5,1.9999999 -5.5,4.4999999 l -6.8,16.5 c -1.4,-2.1 -3.4,-3.5 -5,-4.1 -0.5,-0.2 -1.1,-0.2 -1.5,0 -0.5,0.2 -0.9,0.6 -1.1,1.1 l -8.2,19.9 c -0.2,0.5 -0.2,1 0,1.4 l 3.9,10.9 -5.9,14.3 c -0.2,0.5 -0.2,1 0,1.5 0.2,0.5 0.6,0.9 1.1,1.1 l 28.6,11.8 c 0.2,0.1 0.5,0.2 0.8,0.2 0.3,0 0.5,-0.1 0.8,-0.2 0.5,-0.2 0.9,-0.6 1.1,-1.1 l 6,-14.5 6.1,-5.7 c 0.2,-0.2 0.4,-0.4 0.5,-0.7 l 11.3,-27.3 c 0.7,-2.2 0.3,-4 -0.2,-5.1 z m -3.8,3.6 -11.1,27 -6.1,5.6 c -0.2,0.2 -0.4,0.4 -0.5,0.7 l -5.4,13 -24.8,-10.2 2,-4.8 19.2,7.9 c 0.2,0.1 0.5,0.2 0.8,0.2 0.8,0 1.5,-0.5 1.8,-1.2 0.4,-1 -0.1,-2.2 -1.1,-2.6 l -19.2,-7.9 2,-4.8 c 0.2,-0.5 0.2,-1 0,-1.4 l -3.9,-10.9 7.1,-17.2 c 1.5,1.2 3.1,3.4 1.6,7.1 -0.1,0.3 -2.7,7 0.9,11.7 0.7,0.9 1.9,1 2.8,0.4 0.9,-0.7 1,-1.9 0.4,-2.8 -2.3,-2.9 -0.4,-7.8 -0.4,-7.8 0.2,-0.4 0.3,-0.8 0.4,-1.2 0.1,-0.1 0.2,-0.3 0.2,-0.4 l 9.3,-22.6 c 0.5,-1.2 1.3,-1.9 2.4,-2.1 0.9,-0.1 1.8,0.2 2.3,0.9 0.6,0.8 0.6,1.9 0.1,3.1 l -8.9,21.7 c -0.4,1 0.1,2.2 1.1,2.6 0.2,0.1 0.5,0.2 0.8,0.2 0.8,0 1.5,-0.5 1.8,-1.2 l 6.7,-16.2 v 0 l 3.8,-9.2 c 0.5,-1.2 1.3,-2 2.4,-2.1 0.9,-0.1 1.8,0.2 2.3,0.9 0.6,0.8 0.6,1.9 0.1,3.1 l -10.5,25.4 c -0.4,1 0.1,2.2 1.1,2.6 0.2,0.1 0.5,0.2 0.8,0.2 0.8,0 1.5,-0.5 1.8,-1.2 l 8,-19.5 v 0 c 0.8,-2 2.2,-2.5 3.2,-2.1 1.1,0.5 1.4,1.9 0.6,3.7 l -3.5,8.4 v 0 0 l -5,12 c -0.4,1 0.1,2.2 1.1,2.6 0.2,0.1 0.5,0.2 0.8,0.2 0.8,0 1.5,-0.5 1.8,-1.2 l 5,-12 c 0.3,-0.8 0.8,-1.3 1.4,-1.5 0.5,-0.2 1,-0.2 1.5,0 0.5,0.2 0.9,0.6 1.1,1 0.3,0.4 0.3,1.2 -0.1,1.9 z"
     id="path932"
     inkscape:connector-curvature="0" /></svg>