<?xml version="1.0" encoding="UTF-8" standalone="no"?>
<!-- Generator: Adobe Illustrator 19.0.0, SVG Export Plug-In . SVG Version: 6.00 Build 0)  -->

<svg
   xmlns:dc="http://purl.org/dc/elements/1.1/"
   xmlns:cc="http://creativecommons.org/ns#"
   xmlns:rdf="http://www.w3.org/1999/02/22-rdf-syntax-ns#"
   xmlns:svg="http://www.w3.org/2000/svg"
   xmlns="http://www.w3.org/2000/svg"
   xmlns:sodipodi="http://sodipodi.sourceforge.net/DTD/sodipodi-0.dtd"
   xmlns:inkscape="http://www.inkscape.org/namespaces/inkscape"
   version="1.1"
   id="Capa_1"
   x="0px"
   y="0px"
   viewBox="0 0 512 512"
   style="enable-background:new 0 0 512 512;"
   xml:space="preserve"
   sodipodi:docname="tram.svg"
   inkscape:version="0.92.2 2405546, 2018-03-11"><metadata
   id="metadata1988"><rdf:RDF><cc:Work
       rdf:about=""><dc:format>image/svg+xml</dc:format><dc:type
         rdf:resource="http://purl.org/dc/dcmitype/StillImage" /><dc:title></dc:title></cc:Work></rdf:RDF></metadata><defs
   id="defs1986">
	
	
</defs><sodipodi:namedview
   pagecolor="#ffffff"
   bordercolor="#666666"
   borderopacity="1"
   objecttolerance="10"
   gridtolerance="10"
   guidetolerance="10"
   inkscape:pageopacity="0"
   inkscape:pageshadow="2"
   inkscape:window-width="1920"
   inkscape:window-height="1060"
   id="namedview1984"
   showgrid="false"
   inkscape:zoom="0.921875"
   inkscape:cx="1.4454636"
   inkscape:cy="282.44525"
   inkscape:window-x="0"
   inkscape:window-y="20"
   inkscape:window-maximized="0"
   inkscape:current-layer="Capa_1" />
<path
   style="fill:#41B787;"
   d="M512,256c0,20.208-2.341,39.863-6.771,58.723c-6.76,28.829-18.401,55.777-34.001,79.935  c-18.808,29.132-43.363,54.209-72.077,73.613c-11.557,7.805-23.782,14.691-36.571,20.553c-1.118,0.512-2.236,1.024-3.365,1.515  c-7.408,3.271-15.005,6.196-22.758,8.756c-2.33,0.773-4.671,1.505-7.022,2.215C306.176,508.27,281.527,512,256,512  s-50.176-3.73-73.435-10.689c-2.351-0.711-4.692-1.442-7.022-2.215c-7.753-2.56-15.35-5.486-22.758-8.756  c-1.128-0.491-2.247-1.003-3.365-1.515c-12.79-5.862-25.015-12.748-36.571-20.553c-39.184-26.488-70.646-63.53-90.29-107.05  c-7.617-16.865-13.458-34.712-17.283-53.29C1.818,291.161,0,273.795,0,256c0-3.291,0.063-6.562,0.188-9.822  c1.055-28.035,6.614-54.909,15.997-79.935c16.677-44.544,45.411-83.205,82.223-112.003C141.855,20.25,196.556,0,256,0  c59.434,0,114.124,20.25,157.571,54.22C473.485,101.083,512,174.049,512,256z"
   id="path1867" />
<g
   id="g1879">
	<path
   style="fill:#5BD3A2;"
   d="M477.81,173.112L477.81,173.112c0-7.358-5.965-13.324-13.324-13.324h-4.441   c-7.358,0-13.324-5.965-13.324-13.324l0,0c0-7.358-5.965-13.323-13.323-13.323H229.114c-7.358,0-13.324,5.965-13.324,13.323l0,0   c0,7.358,5.965,13.324,13.324,13.324h82.159c7.358,0,13.323,5.965,13.323,13.324l0,0c0,7.358-5.965,13.324-13.323,13.324h-37.419   c-7.358,0-13.323,5.965-13.323,13.324l0,0c0,7.358,5.965,13.324,13.323,13.324h11.304c7.358,0,13.323,5.965,13.323,13.324l0,0   c0,7.358-5.965,13.324-13.323,13.324h-40.5c-7.358,0-13.324,5.965-13.324,13.324l0,0c0,7.358,5.965,13.324,13.324,13.324h191.876   c7.358,0,13.324-5.965,13.324-13.324l0,0c0-7.358,5.965-13.324,13.323-13.324h1.309c7.358,0,13.323-5.965,13.323-13.324l0,0   c0-7.358-5.965-13.324-13.323-13.324h-24.426c-7.358,0-13.323-5.965-13.323-13.324l0,0c0-7.358,5.965-13.324,13.323-13.324h24.426   C471.846,186.436,477.81,180.471,477.81,173.112z"
   id="path1869" />
	<path
   style="fill:#5BD3A2;"
   d="M505.229,314.723c-6.76,28.829-18.401,55.777-34.001,79.935H443.11   c-3.678,0-7.011-1.494-9.415-3.897c-2.414-2.414-3.908-5.747-3.908-9.425c0-7.356,5.966-13.322,13.322-13.322h3.709   c3.678,0,7.011-1.494,9.425-3.897c2.403-2.414,3.897-5.747,3.897-9.425c0-7.356-5.966-13.322-13.322-13.322h-36.321   c-3.678,0-7.011-1.494-9.425-3.897c-2.403-2.414-3.897-5.747-3.897-9.425c0-7.367,5.966-13.322,13.322-13.322H505.229z"
   id="path1871" />
	<path
   style="fill:#5BD3A2;"
   d="M138.146,232.855c0,7.356-5.956,13.322-13.322,13.322H0.188   c1.055-28.035,6.614-54.909,15.997-79.935h87.918c3.678,0,7.011,1.494,9.415,3.897c2.414,2.414,3.908,5.747,3.908,9.425   c0,7.356-5.966,13.322-13.322,13.322H61.168c-7.356,0-13.322,5.966-13.322,13.322c0,7.356,5.966,13.322,13.322,13.322h63.655   c3.678,0,7.011,1.494,9.425,3.897C136.652,225.844,138.146,229.177,138.146,232.855z"
   id="path1873" />
	<path
   style="fill:#5BD3A2;"
   d="M267.196,75.821L267.196,75.821c0-7.358,5.965-13.323,13.323-13.323h42.934   c7.358,0,13.323-5.965,13.323-13.323l0,0c0-7.358-5.965-13.323-13.323-13.323H196.885c-7.358,0-13.324,5.965-13.324,13.323l0,0   c0,7.358-5.965,13.323-13.324,13.323h-42.934c-7.358,0-13.323,5.965-13.323,13.323l0,0c0,7.358,5.965,13.323,13.323,13.323h63.659   c7.358,0,13.324,5.965,13.324,13.323l0,0c0,7.358,5.965,13.323,13.324,13.323h126.568c7.358,0,13.324-5.965,13.324-13.323l0,0   c0-7.358-5.965-13.323-13.324-13.323H280.52C273.161,89.144,267.196,83.179,267.196,75.821z"
   id="path1875" />
	<path
   style="fill:#5BD3A2;"
   d="M97.155,347.899c0,7.367-5.966,13.322-13.322,13.322H22.559   c-7.617-16.865-13.458-34.712-17.283-53.29h51.911c7.356,0,13.322,5.966,13.322,13.322c0,3.678,1.484,7.011,3.897,9.425   c2.414,2.403,5.736,3.897,9.425,3.897c3.678,0,7.011,1.494,9.415,3.897C95.66,340.887,97.155,344.221,97.155,347.899z"
   id="path1877" />
</g>
<g
   id="g1885">
	<rect
   x="112.849"
   y="375.923"
   style="fill:#EDBB4C;"
   width="286.302"
   height="43.886"
   id="rect1881" />
	<path
   style="fill:#EDBB4C;"
   d="M399.151,457.425v10.846c-11.557,7.805-23.782,14.691-36.571,20.553   c-1.118,0.512-2.236,1.024-3.365,1.515c-7.408,3.271-15.005,6.196-22.758,8.756c-2.33,0.773-4.671,1.505-7.022,2.215H182.565   c-2.351-0.711-4.692-1.442-7.022-2.215c-7.753-2.56-15.35-5.486-22.758-8.756c-1.128-0.491-2.247-1.003-3.365-1.515   c-12.79-5.862-25.015-12.748-36.571-20.553v-10.846H399.151z"
   id="path1883" />
</g>
<g
   id="g1891">
	<rect
   x="112.849"
   y="364.951"
   style="fill:#FFD15C;"
   width="286.302"
   height="43.886"
   id="rect1887" />
	<path
   style="fill:#FFD15C;"
   d="M399.151,446.454v21.817c-11.557,7.805-23.782,14.691-36.571,20.553   c-1.118,0.512-2.236,1.024-3.365,1.515h-206.43c-1.128-0.491-2.247-1.003-3.365-1.515c-12.79-5.862-25.015-12.748-36.571-20.553   v-21.817H399.151z"
   id="path1889" />
</g>
<g
   id="g1897">
	<path
   style="fill:#5C5E70;"
   d="M175.543,370.176v128.92c-7.753-2.56-15.35-5.486-22.758-8.756   c-1.128-0.491-2.247-1.003-3.365-1.515V370.176H175.543z"
   id="path1893" />
	<path
   style="fill:#5C5E70;"
   d="M362.58,370.176v118.648c-1.118,0.512-2.236,1.024-3.365,1.515   c-7.408,3.271-15.005,6.196-22.758,8.756v-128.92H362.58z"
   id="path1895" />
</g>
<g
   id="g1903">
	<rect
   x="149.42"
   y="370.176"
   style="fill:#494B5B;"
   width="26.122"
   height="28.087"
   id="rect1899" />
	<rect
   x="336.457"
   y="370.176"
   style="fill:#494B5B;"
   width="26.122"
   height="28.087"
   id="rect1901" />
</g>
<path
   style="fill:#5C5E70;"
   d="M306.168,110.596h-100.54c-3.69,0-6.88-2.574-7.66-6.18l-19.195-88.722l15.319-3.314l17.857,82.543  h87.895l18.057-83.473l15.319,3.313l-19.393,89.652C313.047,108.022,309.857,110.596,306.168,110.596z"
   id="path1905" />
<path
   style="fill:#22468e;fill-opacity:1"
   d="M425.179,242.531l-23.552,109.098c-3.709,17.147-18.871,29.393-36.425,29.393H146.787  c-17.544,0-32.716-12.246-36.415-29.393L86.821,242.531c-2.09-9.644-2.006-19.623,0.24-29.226l26.917-115.231  c4.754-20.365,21.703-35.318,42.047-37.857c2.017-0.251,4.065-0.376,6.144-0.376h187.653c22.998,0,42.966,15.841,48.201,38.233  l26.906,115.231C427.175,222.908,427.259,232.887,425.179,242.531z"
   id="path1907" />
<path
   style="fill:#183163;fill-opacity:1"
   d="M243.095,381.022h-96.308c-17.544,0-32.716-12.246-36.415-29.393L86.821,242.531  c-2.09-9.644-2.006-19.623,0.24-29.226l26.917-115.231c4.754-20.365,21.703-35.318,42.047-37.857l6.144-0.376  c0,0-34.691,19.853-14.838,53.29l-29.602,78.336c0,0,19.822,134.426,41.953,161.991  C169.566,365.777,205.908,374.805,243.095,381.022z"
   id="path1909" />
<path
   style="fill:#34ABE0;"
   d="M365.202,228.101H146.798c-19.226,0-33.447-17.91-29.069-36.634l19.801-84.783  c1.358-5.82,4.462-10.877,8.673-14.649c0-0.01,0-0.01,0-0.01c5.068-4.577,11.776-7.293,18.996-7.293h181.593  c13.208,0,24.67,9.101,27.669,21.953l19.801,84.783C398.629,210.192,384.428,228.101,365.202,228.101z"
   id="path1911" />
<path
   style="fill:#5C5E70;"
   d="M374.372,22.385H137.621c-6.182,0-11.192-5.011-11.192-11.192l0,0  c0-6.182,5.011-11.192,11.192-11.192h236.751c6.182,0,11.192,5.011,11.192,11.192l0,0C385.564,17.375,380.553,22.385,374.372,22.385  z"
   id="path1913" />
<path
   style="fill:#22468e;fill-opacity:1"
   d="M228.911,131.719c-11.953,0-21.675-9.724-21.675-21.675V93.326c0-11.953,9.724-21.675,21.675-21.675  h54.166c11.953,0,21.675,9.724,21.675,21.675v16.717c0,11.953-9.724,21.675-21.675,21.675  C283.077,131.719,228.911,131.719,228.911,131.719z"
   id="path1915" />
<path
   style="fill:#FFD15C;"
   d="M283.079,82.024h-54.166c-6.242,0-11.302,5.06-11.302,11.302v16.717  c0,6.242,5.06,11.302,11.302,11.302h54.166c6.242,0,11.302-5.06,11.302-11.302V93.326C294.38,87.084,289.32,82.024,283.079,82.024z"
   id="path1917" />
<path
   style="fill:#EDBB4C;"
   d="M190.206,312.196c0,6.684-2.155,12.884-5.801,17.907c-5.555,7.648-14.562,12.618-24.725,12.618  c-16.857,0-30.518-13.669-30.518-30.527c0-10.164,4.972-19.171,12.61-24.725c5.025-3.647,11.215-5.801,17.908-5.801  C176.535,281.669,190.206,295.338,190.206,312.196z"
   id="path1919" />
<path
   style="fill:#FFD15C;"
   d="M190.206,312.196c0,6.684-2.155,12.884-5.801,17.907c-5.025,3.647-11.215,5.801-17.908,5.801  c-16.866,0-30.527-13.661-30.527-30.517c0-6.694,2.155-12.884,5.801-17.917c5.025-3.647,11.215-5.801,17.909-5.801  C176.535,281.669,190.206,295.338,190.206,312.196z"
   id="path1921" />
<g
   id="g1927">
	<circle
   style="fill:#FFDC8D;"
   cx="175.344"
   cy="307.179"
   r="7.396"
   id="circle1923" />
	<circle
   style="fill:#FFDC8D;"
   cx="166.734"
   cy="293.272"
   r="5.19"
   id="circle1925" />
</g>
<path
   style="fill:#EDBB4C;"
   d="M382.833,312.196c0,6.684-2.155,12.884-5.801,17.907c-5.555,7.648-14.562,12.618-24.725,12.618  c-16.857,0-30.518-13.669-30.518-30.527c0-10.164,4.972-19.171,12.61-24.725c5.025-3.647,11.215-5.801,17.909-5.801  C369.162,281.669,382.833,295.338,382.833,312.196z"
   id="path1929" />
<path
   style="fill:#FFD15C;"
   d="M382.833,312.196c0,6.684-2.155,12.884-5.801,17.907c-5.025,3.647-11.215,5.801-17.909,5.801  c-16.866,0-30.527-13.661-30.527-30.517c0-6.694,2.155-12.884,5.801-17.917c5.025-3.647,11.215-5.801,17.909-5.801  C369.162,281.669,382.833,295.338,382.833,312.196z"
   id="path1931" />
<g
   id="g1937">
	<circle
   style="fill:#FFDC8D;"
   cx="367.971"
   cy="307.179"
   r="7.396"
   id="circle1933" />
	<circle
   style="fill:#FFDC8D;"
   cx="359.361"
   cy="293.272"
   r="5.19"
   id="circle1935" />
</g>
<g
   id="g2537"><path
     style="fill:#2e5dbd;fill-opacity:1"
     d="m 392.882,261.507 h -59.559 c -5.194,0 -9.404,-4.21 -9.404,-9.404 v 0 c 0,-5.194 4.21,-9.404 9.404,-9.404 h 59.559 c 5.194,0 9.404,4.21 9.404,9.404 v 0 c 0,5.194 -4.21,9.404 -9.404,9.404 z"
     id="path1939"
     inkscape:connector-curvature="0" /><path
     style="fill:#2e5dbd;fill-opacity:1"
     d="m 300.931,261.507 h -12.539 c -5.194,0 -9.404,-4.21 -9.404,-9.404 v 0 c 0,-5.194 4.21,-9.404 9.404,-9.404 h 12.539 c 5.194,0 9.404,4.21 9.404,9.404 v 0 c 0,5.194 -4.21,9.404 -9.404,9.404 z"
     id="path1941"
     inkscape:connector-curvature="0" /></g>
<path
   style="fill:#78CAEF;"
   d="M373.269,141.079c2.394,7.647-6.45,13.85-12.824,8.996l-23.591-17.966l-24.749-18.847  c-6.26-4.767-2.889-14.759,4.98-14.759h36.813c3.593,0,6.77,2.334,7.844,5.764L373.269,141.079z"
   id="path1945" />
<path
   style="fill:#279FC9;"
   d="M205.845,228.101h-59.047c-19.226,0-33.447-17.91-29.069-36.634l19.801-84.783  c1.358-5.82,4.462-10.877,8.673-14.649C145.91,93.612,123.841,213.598,205.845,228.101z"
   id="path1947" />
<path
   style="fill:#797B89;"
   d="M353.209,10.383h-87.838c-2.867,0-5.191-2.324-5.191-5.191l0,0c0-2.867,2.324-5.191,5.191-5.191  h87.838c2.867,0,5.191,2.324,5.191,5.191l0,0C358.4,8.058,356.076,10.383,353.209,10.383z"
   id="path1949" />
<circle
   style="fill:#FFDC8D;"
   cx="279.688"
   cy="93.978"
   r="9.056"
   id="circle1951" />
<g
   id="g1953">
</g>
<g
   id="g1955">
</g>
<g
   id="g1957">
</g>
<g
   id="g1959">
</g>
<g
   id="g1961">
</g>
<g
   id="g1963">
</g>
<g
   id="g1965">
</g>
<g
   id="g1967">
</g>
<g
   id="g1969">
</g>
<g
   id="g1971">
</g>
<g
   id="g1973">
</g>
<g
   id="g1975">
</g>
<g
   id="g1977">
</g>
<g
   id="g1979">
</g>
<g
   id="g1981">
</g>
</svg>